<svg xmlns="http://www.w3.org/2000/svg" viewBox="0 0 64 64" role="img" aria-labelledby="title desc">
  <title id="title">Mail Nest</title>
  <desc id="desc">A quiet mail tray icon with a warm seal mark.</desc>
  <defs>
    <linearGradient id="bg" x1="9" y1="6" x2="55" y2="58" gradientUnits="userSpaceOnUse">
      <stop stop-color="#122B3D" />
      <stop offset="0.58" stop-color="#1F4B48" />
      <stop offset="1" stop-color="#2F6F68" />
    </linearGradient>
    <linearGradient id="paper" x1="18" y1="18" x2="48" y2="46" gradientUnits="userSpaceOnUse">
      <stop stop-color="#FFFDF7" />
      <stop offset="1" stop-color="#F3E8D8" />
    </linearGradient>
    <filter id="softShadow" x="-20%" y="-20%" width="140%" height="140%">
      <feDropShadow dx="0" dy="2" stdDeviation="2" flood-color="#071A1C" flood-opacity="0.28" />
    </filter>
  </defs>
  <rect width="64" height="64" rx="16" fill="url(#bg)" />
  <path
    d="M15 42.5c0-2.7 2.1-4.9 4.8-5l24.7-.7c2.9-.1 5.5 2 5.9 4.9l.7 4.8c.2 1.4-.9 2.7-2.3 2.7H17.6c-1.4 0-2.6-1.2-2.6-2.6v-4.1Z"
    fill="#E6D8C6"
    opacity="0.95"
  />
  <path
    d="M18 22.5c0-2.1 1.7-3.8 3.8-3.8h20.4c2.1 0 3.8 1.7 3.8 3.8v15c0 2.1-1.7 3.8-3.8 3.8H21.8c-2.1 0-3.8-1.7-3.8-3.8v-15Z"
    fill="url(#paper)"
    filter="url(#softShadow)"
  />
  <path
    d="M20.2 23.6 32 32.1l11.8-8.5"
    fill="none"
    stroke="#1F5F8B"
    stroke-width="3"
    stroke-linecap="round"
    stroke-linejoin="round"
  />
  <path
    d="m20.3 37.2 8.5-7.1M43.7 37.2l-8.5-7.1"
    fill="none"
    stroke="#2F6F68"
    stroke-width="2.6"
    stroke-linecap="round"
    stroke-linejoin="round"
    opacity="0.72"
  />
  <circle cx="47" cy="19" r="7.5" fill="#B43B2D" />
  <path
    d="M44.5 16.4h3.1c1.4 0 2.3.8 2.3 2s-.9 2-2.3 2h-1.2v2.8h-1.9v-6.8Z"
    fill="#FFF7EE"
  />
</svg>
